<mxfile host="app.diagrams.net" modified="2024-01-29T18:46:05.828Z" agent="Mozilla/5.0 (Windows NT 10.0; Win64; x64) AppleWebKit/537.36 (KHTML, like Gecko) Chrome/121.0.0.0 Safari/537.36" etag="ReNA9P31uA9xXMIet_j9" version="23.0.1" type="device">
  <diagram id="C5RBs43oDa-KdzZeNtuy" name="Page-1">
    <mxGraphModel dx="2533" dy="1589" grid="1" gridSize="10" guides="1" tooltips="1" connect="1" arrows="1" fold="1" page="1" pageScale="1" pageWidth="827" pageHeight="1169" math="0" shadow="0">
      <root>
        <mxCell id="WIyWlLk6GJQsqaUBKTNV-0" />
        <mxCell id="WIyWlLk6GJQsqaUBKTNV-1" parent="WIyWlLk6GJQsqaUBKTNV-0" />
        <mxCell id="Q0_0dqxEZTdm9ZpdxWBX-0" value="Field" style="swimlane;fontStyle=1;align=center;verticalAlign=top;childLayout=stackLayout;horizontal=1;startSize=26;horizontalStack=0;resizeParent=1;resizeLast=0;collapsible=1;marginBottom=0;rounded=0;shadow=0;strokeWidth=1;" parent="WIyWlLk6GJQsqaUBKTNV-1" vertex="1">
          <mxGeometry x="376.09000000000003" y="675" width="80" height="164" as="geometry">
            <mxRectangle x="230" y="140" width="160" height="26" as="alternateBounds" />
          </mxGeometry>
        </mxCell>
        <mxCell id="Q0_0dqxEZTdm9ZpdxWBX-1" value="- __value" style="text;align=left;verticalAlign=top;spacingLeft=4;spacingRight=4;overflow=hidden;rotatable=0;points=[[0,0.5],[1,0.5]];portConstraint=eastwest;" parent="Q0_0dqxEZTdm9ZpdxWBX-0" vertex="1">
          <mxGeometry y="26" width="80" height="26" as="geometry" />
        </mxCell>
        <mxCell id="Q0_0dqxEZTdm9ZpdxWBX-2" value="+ value" style="text;align=left;verticalAlign=top;spacingLeft=4;spacingRight=4;overflow=hidden;rotatable=0;points=[[0,0.5],[1,0.5]];portConstraint=eastwest;rounded=0;shadow=0;html=0;" parent="Q0_0dqxEZTdm9ZpdxWBX-0" vertex="1">
          <mxGeometry y="52" width="80" height="26" as="geometry" />
        </mxCell>
        <mxCell id="Q0_0dqxEZTdm9ZpdxWBX-3" value="" style="line;html=1;strokeWidth=1;align=left;verticalAlign=middle;spacingTop=-1;spacingLeft=3;spacingRight=3;rotatable=0;labelPosition=right;points=[];portConstraint=eastwest;" parent="Q0_0dqxEZTdm9ZpdxWBX-0" vertex="1">
          <mxGeometry y="78" width="80" height="8" as="geometry" />
        </mxCell>
        <mxCell id="Q0_0dqxEZTdm9ZpdxWBX-4" value="- __init__()" style="text;align=left;verticalAlign=top;spacingLeft=4;spacingRight=4;overflow=hidden;rotatable=0;points=[[0,0.5],[1,0.5]];portConstraint=eastwest;" parent="Q0_0dqxEZTdm9ZpdxWBX-0" vertex="1">
          <mxGeometry y="86" width="80" height="26" as="geometry" />
        </mxCell>
        <mxCell id="Q0_0dqxEZTdm9ZpdxWBX-5" value="+ _validate()" style="text;align=left;verticalAlign=top;spacingLeft=4;spacingRight=4;overflow=hidden;rotatable=0;points=[[0,0.5],[1,0.5]];portConstraint=eastwest;" parent="Q0_0dqxEZTdm9ZpdxWBX-0" vertex="1">
          <mxGeometry y="112" width="80" height="26" as="geometry" />
        </mxCell>
        <mxCell id="Q0_0dqxEZTdm9ZpdxWBX-6" value="+ __str__()" style="text;align=left;verticalAlign=top;spacingLeft=4;spacingRight=4;overflow=hidden;rotatable=0;points=[[0,0.5],[1,0.5]];portConstraint=eastwest;" parent="Q0_0dqxEZTdm9ZpdxWBX-0" vertex="1">
          <mxGeometry y="138" width="80" height="26" as="geometry" />
        </mxCell>
        <mxCell id="Q0_0dqxEZTdm9ZpdxWBX-7" style="edgeStyle=orthogonalEdgeStyle;rounded=0;orthogonalLoop=1;jettySize=auto;html=1;entryX=0.5;entryY=0;entryDx=0;entryDy=0;startArrow=block;startFill=1;endArrow=diamondThin;endFill=1;endSize=10;startSize=10;" parent="WIyWlLk6GJQsqaUBKTNV-1" source="Q0_0dqxEZTdm9ZpdxWBX-8" target="Q0_0dqxEZTdm9ZpdxWBX-93" edge="1">
          <mxGeometry relative="1" as="geometry" />
        </mxCell>
        <mxCell id="Q0_0dqxEZTdm9ZpdxWBX-8" value="Note" style="swimlane;fontStyle=1;align=center;verticalAlign=top;childLayout=stackLayout;horizontal=1;startSize=26;horizontalStack=0;resizeParent=1;resizeLast=0;collapsible=1;marginBottom=0;rounded=0;shadow=0;strokeWidth=1;" parent="WIyWlLk6GJQsqaUBKTNV-1" vertex="1">
          <mxGeometry x="123.09" y="230" width="160" height="320" as="geometry">
            <mxRectangle x="130" y="380" width="160" height="26" as="alternateBounds" />
          </mxGeometry>
        </mxCell>
        <mxCell id="Q0_0dqxEZTdm9ZpdxWBX-9" value="+ author: Name" style="text;align=left;verticalAlign=top;spacingLeft=4;spacingRight=4;overflow=hidden;rotatable=0;points=[[0,0.5],[1,0.5]];portConstraint=eastwest;" parent="Q0_0dqxEZTdm9ZpdxWBX-8" vertex="1">
          <mxGeometry y="26" width="160" height="26" as="geometry" />
        </mxCell>
        <mxCell id="Q0_0dqxEZTdm9ZpdxWBX-10" value="+ title: Title" style="text;align=left;verticalAlign=top;spacingLeft=4;spacingRight=4;overflow=hidden;rotatable=0;points=[[0,0.5],[1,0.5]];portConstraint=eastwest;rounded=0;shadow=0;html=0;" parent="Q0_0dqxEZTdm9ZpdxWBX-8" vertex="1">
          <mxGeometry y="52" width="160" height="26" as="geometry" />
        </mxCell>
        <mxCell id="Q0_0dqxEZTdm9ZpdxWBX-11" value="+ body" style="text;align=left;verticalAlign=top;spacingLeft=4;spacingRight=4;overflow=hidden;rotatable=0;points=[[0,0.5],[1,0.5]];portConstraint=eastwest;rounded=0;shadow=0;html=0;" parent="Q0_0dqxEZTdm9ZpdxWBX-8" vertex="1">
          <mxGeometry y="78" width="160" height="26" as="geometry" />
        </mxCell>
        <mxCell id="Q0_0dqxEZTdm9ZpdxWBX-12" value="+ tags" style="text;align=left;verticalAlign=top;spacingLeft=4;spacingRight=4;overflow=hidden;rotatable=0;points=[[0,0.5],[1,0.5]];portConstraint=eastwest;rounded=0;shadow=0;html=0;" parent="Q0_0dqxEZTdm9ZpdxWBX-8" vertex="1">
          <mxGeometry y="104" width="160" height="26" as="geometry" />
        </mxCell>
        <mxCell id="Q0_0dqxEZTdm9ZpdxWBX-13" value="+ created_at" style="text;align=left;verticalAlign=top;spacingLeft=4;spacingRight=4;overflow=hidden;rotatable=0;points=[[0,0.5],[1,0.5]];portConstraint=eastwest;rounded=0;shadow=0;html=0;" parent="Q0_0dqxEZTdm9ZpdxWBX-8" vertex="1">
          <mxGeometry y="130" width="160" height="26" as="geometry" />
        </mxCell>
        <mxCell id="Q0_0dqxEZTdm9ZpdxWBX-14" value="" style="line;html=1;strokeWidth=1;align=left;verticalAlign=middle;spacingTop=-1;spacingLeft=3;spacingRight=3;rotatable=0;labelPosition=right;points=[];portConstraint=eastwest;" parent="Q0_0dqxEZTdm9ZpdxWBX-8" vertex="1">
          <mxGeometry y="156" width="160" height="8" as="geometry" />
        </mxCell>
        <mxCell id="Q0_0dqxEZTdm9ZpdxWBX-15" value="- __init__()" style="text;align=left;verticalAlign=top;spacingLeft=4;spacingRight=4;overflow=hidden;rotatable=0;points=[[0,0.5],[1,0.5]];portConstraint=eastwest;" parent="Q0_0dqxEZTdm9ZpdxWBX-8" vertex="1">
          <mxGeometry y="164" width="160" height="26" as="geometry" />
        </mxCell>
        <mxCell id="Q0_0dqxEZTdm9ZpdxWBX-16" value="+ edit_note_title()" style="text;align=left;verticalAlign=top;spacingLeft=4;spacingRight=4;overflow=hidden;rotatable=0;points=[[0,0.5],[1,0.5]];portConstraint=eastwest;" parent="Q0_0dqxEZTdm9ZpdxWBX-8" vertex="1">
          <mxGeometry y="190" width="160" height="26" as="geometry" />
        </mxCell>
        <mxCell id="Q0_0dqxEZTdm9ZpdxWBX-17" value="+ edit_note()" style="text;align=left;verticalAlign=top;spacingLeft=4;spacingRight=4;overflow=hidden;rotatable=0;points=[[0,0.5],[1,0.5]];portConstraint=eastwest;" parent="Q0_0dqxEZTdm9ZpdxWBX-8" vertex="1">
          <mxGeometry y="216" width="160" height="26" as="geometry" />
        </mxCell>
        <mxCell id="Q0_0dqxEZTdm9ZpdxWBX-18" value="+ to_dict()" style="text;align=left;verticalAlign=top;spacingLeft=4;spacingRight=4;overflow=hidden;rotatable=0;points=[[0,0.5],[1,0.5]];portConstraint=eastwest;" parent="Q0_0dqxEZTdm9ZpdxWBX-8" vertex="1">
          <mxGeometry y="242" width="160" height="26" as="geometry" />
        </mxCell>
        <mxCell id="Q0_0dqxEZTdm9ZpdxWBX-19" value="+ from_dict()" style="text;align=left;verticalAlign=top;spacingLeft=4;spacingRight=4;overflow=hidden;rotatable=0;points=[[0,0.5],[1,0.5]];portConstraint=eastwest;" parent="Q0_0dqxEZTdm9ZpdxWBX-8" vertex="1">
          <mxGeometry y="268" width="160" height="26" as="geometry" />
        </mxCell>
        <mxCell id="Q0_0dqxEZTdm9ZpdxWBX-20" value="+ __str__()" style="text;align=left;verticalAlign=top;spacingLeft=4;spacingRight=4;overflow=hidden;rotatable=0;points=[[0,0.5],[1,0.5]];portConstraint=eastwest;" parent="Q0_0dqxEZTdm9ZpdxWBX-8" vertex="1">
          <mxGeometry y="294" width="160" height="26" as="geometry" />
        </mxCell>
        <mxCell id="7zgd1YvoaxOKJfCatQyc-9" style="edgeStyle=orthogonalEdgeStyle;rounded=0;orthogonalLoop=1;jettySize=auto;html=1;entryX=0;entryY=0.5;entryDx=0;entryDy=0;exitX=1;exitY=0.25;exitDx=0;exitDy=0;endSize=10;startSize=10;startArrow=block;startFill=1;endArrow=diamondThin;endFill=0;" edge="1" parent="WIyWlLk6GJQsqaUBKTNV-1" source="Q0_0dqxEZTdm9ZpdxWBX-23" target="Q0_0dqxEZTdm9ZpdxWBX-54">
          <mxGeometry relative="1" as="geometry">
            <Array as="points">
              <mxPoint x="482.09000000000003" y="340" />
              <mxPoint x="482.09000000000003" y="150" />
            </Array>
          </mxGeometry>
        </mxCell>
        <mxCell id="7zgd1YvoaxOKJfCatQyc-18" style="edgeStyle=orthogonalEdgeStyle;rounded=0;orthogonalLoop=1;jettySize=auto;html=1;endArrow=none;endFill=0;exitX=-0.007;exitY=0.179;exitDx=0;exitDy=0;exitPerimeter=0;" edge="1" parent="WIyWlLk6GJQsqaUBKTNV-1" source="Q0_0dqxEZTdm9ZpdxWBX-23">
          <mxGeometry relative="1" as="geometry">
            <mxPoint x="312.09000000000003" y="335" as="targetPoint" />
          </mxGeometry>
        </mxCell>
        <mxCell id="Q0_0dqxEZTdm9ZpdxWBX-23" value="Phone" style="swimlane;fontStyle=1;align=center;verticalAlign=top;childLayout=stackLayout;horizontal=1;startSize=26;horizontalStack=0;resizeParent=1;resizeLast=0;collapsible=1;marginBottom=0;rounded=0;shadow=0;strokeWidth=1;" parent="WIyWlLk6GJQsqaUBKTNV-1" vertex="1">
          <mxGeometry x="342.09000000000003" y="325" width="80" height="60" as="geometry">
            <mxRectangle x="230" y="140" width="160" height="26" as="alternateBounds" />
          </mxGeometry>
        </mxCell>
        <mxCell id="Q0_0dqxEZTdm9ZpdxWBX-24" value="" style="line;html=1;strokeWidth=1;align=left;verticalAlign=middle;spacingTop=-1;spacingLeft=3;spacingRight=3;rotatable=0;labelPosition=right;points=[];portConstraint=eastwest;" parent="Q0_0dqxEZTdm9ZpdxWBX-23" vertex="1">
          <mxGeometry y="26" width="80" height="8" as="geometry" />
        </mxCell>
        <mxCell id="Q0_0dqxEZTdm9ZpdxWBX-25" value="+ _validate()" style="text;align=left;verticalAlign=top;spacingLeft=4;spacingRight=4;overflow=hidden;rotatable=0;points=[[0,0.5],[1,0.5]];portConstraint=eastwest;" parent="Q0_0dqxEZTdm9ZpdxWBX-23" vertex="1">
          <mxGeometry y="34" width="80" height="26" as="geometry" />
        </mxCell>
        <mxCell id="7zgd1YvoaxOKJfCatQyc-12" style="edgeStyle=orthogonalEdgeStyle;rounded=0;orthogonalLoop=1;jettySize=auto;html=1;exitX=1;exitY=0.25;exitDx=0;exitDy=0;endSize=10;startSize=10;startArrow=block;startFill=1;endArrow=diamondThin;endFill=0;" edge="1" parent="WIyWlLk6GJQsqaUBKTNV-1" source="Q0_0dqxEZTdm9ZpdxWBX-28" target="Q0_0dqxEZTdm9ZpdxWBX-57">
          <mxGeometry relative="1" as="geometry">
            <Array as="points">
              <mxPoint x="542.0899999999999" y="580" />
              <mxPoint x="542.0899999999999" y="228" />
            </Array>
          </mxGeometry>
        </mxCell>
        <mxCell id="7zgd1YvoaxOKJfCatQyc-21" style="edgeStyle=orthogonalEdgeStyle;rounded=0;orthogonalLoop=1;jettySize=auto;html=1;endArrow=none;endFill=0;exitX=0;exitY=0.25;exitDx=0;exitDy=0;" edge="1" parent="WIyWlLk6GJQsqaUBKTNV-1" source="Q0_0dqxEZTdm9ZpdxWBX-28">
          <mxGeometry relative="1" as="geometry">
            <mxPoint x="312.09000000000003" y="580" as="targetPoint" />
          </mxGeometry>
        </mxCell>
        <mxCell id="Q0_0dqxEZTdm9ZpdxWBX-28" value="Birthday" style="swimlane;fontStyle=1;align=center;verticalAlign=top;childLayout=stackLayout;horizontal=1;startSize=26;horizontalStack=0;resizeParent=1;resizeLast=0;collapsible=1;marginBottom=0;rounded=0;shadow=0;strokeWidth=1;" parent="WIyWlLk6GJQsqaUBKTNV-1" vertex="1">
          <mxGeometry x="342.09000000000003" y="565" width="80" height="60" as="geometry">
            <mxRectangle x="230" y="140" width="160" height="26" as="alternateBounds" />
          </mxGeometry>
        </mxCell>
        <mxCell id="Q0_0dqxEZTdm9ZpdxWBX-29" value="" style="line;html=1;strokeWidth=1;align=left;verticalAlign=middle;spacingTop=-1;spacingLeft=3;spacingRight=3;rotatable=0;labelPosition=right;points=[];portConstraint=eastwest;" parent="Q0_0dqxEZTdm9ZpdxWBX-28" vertex="1">
          <mxGeometry y="26" width="80" height="8" as="geometry" />
        </mxCell>
        <mxCell id="Q0_0dqxEZTdm9ZpdxWBX-30" value="+ _validate()" style="text;align=left;verticalAlign=top;spacingLeft=4;spacingRight=4;overflow=hidden;rotatable=0;points=[[0,0.5],[1,0.5]];portConstraint=eastwest;" parent="Q0_0dqxEZTdm9ZpdxWBX-28" vertex="1">
          <mxGeometry y="34" width="80" height="26" as="geometry" />
        </mxCell>
        <mxCell id="7zgd1YvoaxOKJfCatQyc-8" style="edgeStyle=orthogonalEdgeStyle;rounded=0;orthogonalLoop=1;jettySize=auto;html=1;entryX=0;entryY=0.5;entryDx=0;entryDy=0;exitX=1;exitY=0.25;exitDx=0;exitDy=0;endSize=10;startSize=10;startArrow=block;startFill=1;endArrow=diamondThin;endFill=1;" edge="1" parent="WIyWlLk6GJQsqaUBKTNV-1" source="Q0_0dqxEZTdm9ZpdxWBX-33" target="Q0_0dqxEZTdm9ZpdxWBX-53">
          <mxGeometry relative="1" as="geometry">
            <Array as="points">
              <mxPoint x="462.09000000000003" y="260" />
              <mxPoint x="462.09000000000003" y="124" />
            </Array>
          </mxGeometry>
        </mxCell>
        <mxCell id="Q0_0dqxEZTdm9ZpdxWBX-33" value="Name" style="swimlane;fontStyle=1;align=center;verticalAlign=top;childLayout=stackLayout;horizontal=1;startSize=26;horizontalStack=0;resizeParent=1;resizeLast=0;collapsible=1;marginBottom=0;rounded=0;shadow=0;strokeWidth=1;" parent="WIyWlLk6GJQsqaUBKTNV-1" vertex="1">
          <mxGeometry x="342.09000000000003" y="245" width="80" height="60" as="geometry">
            <mxRectangle x="230" y="140" width="160" height="26" as="alternateBounds" />
          </mxGeometry>
        </mxCell>
        <mxCell id="Q0_0dqxEZTdm9ZpdxWBX-34" value="" style="line;html=1;strokeWidth=1;align=left;verticalAlign=middle;spacingTop=-1;spacingLeft=3;spacingRight=3;rotatable=0;labelPosition=right;points=[];portConstraint=eastwest;" parent="Q0_0dqxEZTdm9ZpdxWBX-33" vertex="1">
          <mxGeometry y="26" width="80" height="8" as="geometry" />
        </mxCell>
        <mxCell id="Q0_0dqxEZTdm9ZpdxWBX-35" value="+ _validate()" style="text;align=left;verticalAlign=top;spacingLeft=4;spacingRight=4;overflow=hidden;rotatable=0;points=[[0,0.5],[1,0.5]];portConstraint=eastwest;" parent="Q0_0dqxEZTdm9ZpdxWBX-33" vertex="1">
          <mxGeometry y="34" width="80" height="26" as="geometry" />
        </mxCell>
        <mxCell id="7zgd1YvoaxOKJfCatQyc-10" style="edgeStyle=orthogonalEdgeStyle;rounded=0;orthogonalLoop=1;jettySize=auto;html=1;entryX=0;entryY=0.5;entryDx=0;entryDy=0;exitX=1;exitY=0.25;exitDx=0;exitDy=0;endSize=10;startSize=10;startArrow=block;startFill=1;endArrow=diamondThin;endFill=0;" edge="1" parent="WIyWlLk6GJQsqaUBKTNV-1" source="Q0_0dqxEZTdm9ZpdxWBX-37" target="Q0_0dqxEZTdm9ZpdxWBX-55">
          <mxGeometry relative="1" as="geometry">
            <Array as="points">
              <mxPoint x="502.09000000000003" y="420" />
              <mxPoint x="502.09000000000003" y="176" />
            </Array>
          </mxGeometry>
        </mxCell>
        <mxCell id="7zgd1YvoaxOKJfCatQyc-19" style="edgeStyle=orthogonalEdgeStyle;rounded=0;orthogonalLoop=1;jettySize=auto;html=1;endArrow=none;endFill=0;exitX=0;exitY=0.25;exitDx=0;exitDy=0;" edge="1" parent="WIyWlLk6GJQsqaUBKTNV-1" source="Q0_0dqxEZTdm9ZpdxWBX-37">
          <mxGeometry relative="1" as="geometry">
            <mxPoint x="312.09000000000003" y="420" as="targetPoint" />
          </mxGeometry>
        </mxCell>
        <mxCell id="Q0_0dqxEZTdm9ZpdxWBX-37" value="Email" style="swimlane;fontStyle=1;align=center;verticalAlign=top;childLayout=stackLayout;horizontal=1;startSize=26;horizontalStack=0;resizeParent=1;resizeLast=0;collapsible=1;marginBottom=0;rounded=0;shadow=0;strokeWidth=1;" parent="WIyWlLk6GJQsqaUBKTNV-1" vertex="1">
          <mxGeometry x="342.09000000000003" y="405" width="80" height="60" as="geometry">
            <mxRectangle x="230" y="140" width="160" height="26" as="alternateBounds" />
          </mxGeometry>
        </mxCell>
        <mxCell id="Q0_0dqxEZTdm9ZpdxWBX-39" value="" style="line;html=1;strokeWidth=1;align=left;verticalAlign=middle;spacingTop=-1;spacingLeft=3;spacingRight=3;rotatable=0;labelPosition=right;points=[];portConstraint=eastwest;" parent="Q0_0dqxEZTdm9ZpdxWBX-37" vertex="1">
          <mxGeometry y="26" width="80" height="8" as="geometry" />
        </mxCell>
        <mxCell id="Q0_0dqxEZTdm9ZpdxWBX-38" value="+ _validate()" style="text;align=left;verticalAlign=top;spacingLeft=4;spacingRight=4;overflow=hidden;rotatable=0;points=[[0,0.5],[1,0.5]];portConstraint=eastwest;" parent="Q0_0dqxEZTdm9ZpdxWBX-37" vertex="1">
          <mxGeometry y="34" width="80" height="26" as="geometry" />
        </mxCell>
        <mxCell id="Q0_0dqxEZTdm9ZpdxWBX-42" value="Title" style="swimlane;fontStyle=1;align=center;verticalAlign=top;childLayout=stackLayout;horizontal=1;startSize=26;horizontalStack=0;resizeParent=1;resizeLast=0;collapsible=1;marginBottom=0;rounded=0;shadow=0;strokeWidth=1;" parent="WIyWlLk6GJQsqaUBKTNV-1" vertex="1">
          <mxGeometry x="342.09" y="160" width="80" height="60" as="geometry">
            <mxRectangle x="230" y="140" width="160" height="26" as="alternateBounds" />
          </mxGeometry>
        </mxCell>
        <mxCell id="Q0_0dqxEZTdm9ZpdxWBX-44" value="" style="line;html=1;strokeWidth=1;align=left;verticalAlign=middle;spacingTop=-1;spacingLeft=3;spacingRight=3;rotatable=0;labelPosition=right;points=[];portConstraint=eastwest;" parent="Q0_0dqxEZTdm9ZpdxWBX-42" vertex="1">
          <mxGeometry y="26" width="80" height="8" as="geometry" />
        </mxCell>
        <mxCell id="Q0_0dqxEZTdm9ZpdxWBX-43" value="+ _validate()" style="text;align=left;verticalAlign=top;spacingLeft=4;spacingRight=4;overflow=hidden;rotatable=0;points=[[0,0.5],[1,0.5]];portConstraint=eastwest;" parent="Q0_0dqxEZTdm9ZpdxWBX-42" vertex="1">
          <mxGeometry y="34" width="80" height="26" as="geometry" />
        </mxCell>
        <mxCell id="7zgd1YvoaxOKJfCatQyc-11" style="edgeStyle=orthogonalEdgeStyle;rounded=0;orthogonalLoop=1;jettySize=auto;html=1;entryX=0;entryY=0.5;entryDx=0;entryDy=0;exitX=1;exitY=0.25;exitDx=0;exitDy=0;endSize=10;startSize=10;startArrow=block;startFill=1;endArrow=diamondThin;endFill=0;" edge="1" parent="WIyWlLk6GJQsqaUBKTNV-1" source="Q0_0dqxEZTdm9ZpdxWBX-47" target="Q0_0dqxEZTdm9ZpdxWBX-56">
          <mxGeometry relative="1" as="geometry">
            <Array as="points">
              <mxPoint x="522.0899999999999" y="501" />
              <mxPoint x="522.0899999999999" y="202" />
            </Array>
          </mxGeometry>
        </mxCell>
        <mxCell id="7zgd1YvoaxOKJfCatQyc-20" style="edgeStyle=orthogonalEdgeStyle;rounded=0;orthogonalLoop=1;jettySize=auto;html=1;endArrow=none;endFill=0;exitX=0;exitY=0.25;exitDx=0;exitDy=0;" edge="1" parent="WIyWlLk6GJQsqaUBKTNV-1" source="Q0_0dqxEZTdm9ZpdxWBX-47">
          <mxGeometry relative="1" as="geometry">
            <mxPoint x="312.09000000000003" y="501" as="targetPoint" />
          </mxGeometry>
        </mxCell>
        <mxCell id="Q0_0dqxEZTdm9ZpdxWBX-47" value="Adress" style="swimlane;fontStyle=1;align=center;verticalAlign=top;childLayout=stackLayout;horizontal=1;startSize=26;horizontalStack=0;resizeParent=1;resizeLast=0;collapsible=1;marginBottom=0;rounded=0;shadow=0;strokeWidth=1;" parent="WIyWlLk6GJQsqaUBKTNV-1" vertex="1">
          <mxGeometry x="342.09000000000003" y="486" width="80" height="60" as="geometry">
            <mxRectangle x="230" y="140" width="160" height="26" as="alternateBounds" />
          </mxGeometry>
        </mxCell>
        <mxCell id="Q0_0dqxEZTdm9ZpdxWBX-49" value="" style="line;html=1;strokeWidth=1;align=left;verticalAlign=middle;spacingTop=-1;spacingLeft=3;spacingRight=3;rotatable=0;labelPosition=right;points=[];portConstraint=eastwest;" parent="Q0_0dqxEZTdm9ZpdxWBX-47" vertex="1">
          <mxGeometry y="26" width="80" height="8" as="geometry" />
        </mxCell>
        <mxCell id="Q0_0dqxEZTdm9ZpdxWBX-114" value="" style="endArrow=none;html=1;rounded=0;elbow=vertical;entryX=0.5;entryY=1;entryDx=0;entryDy=0;" parent="Q0_0dqxEZTdm9ZpdxWBX-47" source="Q0_0dqxEZTdm9ZpdxWBX-48" target="Q0_0dqxEZTdm9ZpdxWBX-47" edge="1">
          <mxGeometry width="50" height="50" relative="1" as="geometry">
            <mxPoint x="40" y="100" as="sourcePoint" />
            <mxPoint x="-70" y="70" as="targetPoint" />
            <Array as="points" />
          </mxGeometry>
        </mxCell>
        <mxCell id="Q0_0dqxEZTdm9ZpdxWBX-48" value="+ _validate()" style="text;align=left;verticalAlign=top;spacingLeft=4;spacingRight=4;overflow=hidden;rotatable=0;points=[[0,0.5],[1,0.5]];portConstraint=eastwest;" parent="Q0_0dqxEZTdm9ZpdxWBX-47" vertex="1">
          <mxGeometry y="34" width="80" height="26" as="geometry" />
        </mxCell>
        <mxCell id="Q0_0dqxEZTdm9ZpdxWBX-50" value="UserDict" style="swimlane;fontStyle=1;align=center;verticalAlign=top;childLayout=stackLayout;horizontal=1;startSize=26;horizontalStack=0;resizeParent=1;resizeLast=0;collapsible=1;marginBottom=0;rounded=0;shadow=0;strokeWidth=1;" parent="WIyWlLk6GJQsqaUBKTNV-1" vertex="1">
          <mxGeometry x="376.09000000000003" y="910" width="80" height="40" as="geometry">
            <mxRectangle x="230" y="140" width="160" height="26" as="alternateBounds" />
          </mxGeometry>
        </mxCell>
        <mxCell id="Q0_0dqxEZTdm9ZpdxWBX-51" value="" style="line;html=1;strokeWidth=1;align=left;verticalAlign=middle;spacingTop=-1;spacingLeft=3;spacingRight=3;rotatable=0;labelPosition=right;points=[];portConstraint=eastwest;" parent="Q0_0dqxEZTdm9ZpdxWBX-50" vertex="1">
          <mxGeometry y="26" width="80" height="8" as="geometry" />
        </mxCell>
        <mxCell id="Q0_0dqxEZTdm9ZpdxWBX-52" value="Record" style="swimlane;fontStyle=1;align=center;verticalAlign=top;childLayout=stackLayout;horizontal=1;startSize=26;horizontalStack=0;resizeParent=1;resizeLast=0;collapsible=1;marginBottom=0;rounded=0;shadow=0;strokeWidth=1;" parent="WIyWlLk6GJQsqaUBKTNV-1" vertex="1">
          <mxGeometry x="563.0899999999999" y="85" width="160" height="610" as="geometry">
            <mxRectangle x="130" y="380" width="160" height="26" as="alternateBounds" />
          </mxGeometry>
        </mxCell>
        <mxCell id="Q0_0dqxEZTdm9ZpdxWBX-53" value="+ nome: Name" style="text;align=left;verticalAlign=top;spacingLeft=4;spacingRight=4;overflow=hidden;rotatable=0;points=[[0,0.5],[1,0.5]];portConstraint=eastwest;" parent="Q0_0dqxEZTdm9ZpdxWBX-52" vertex="1">
          <mxGeometry y="26" width="160" height="26" as="geometry" />
        </mxCell>
        <mxCell id="Q0_0dqxEZTdm9ZpdxWBX-54" value="+ phones: [phone: Phone]" style="text;align=left;verticalAlign=top;spacingLeft=4;spacingRight=4;overflow=hidden;rotatable=0;points=[[0,0.5],[1,0.5]];portConstraint=eastwest;rounded=0;shadow=0;html=0;" parent="Q0_0dqxEZTdm9ZpdxWBX-52" vertex="1">
          <mxGeometry y="52" width="160" height="26" as="geometry" />
        </mxCell>
        <mxCell id="Q0_0dqxEZTdm9ZpdxWBX-55" value="+ emails: [email: Email]" style="text;align=left;verticalAlign=top;spacingLeft=4;spacingRight=4;overflow=hidden;rotatable=0;points=[[0,0.5],[1,0.5]];portConstraint=eastwest;rounded=0;shadow=0;html=0;" parent="Q0_0dqxEZTdm9ZpdxWBX-52" vertex="1">
          <mxGeometry y="78" width="160" height="26" as="geometry" />
        </mxCell>
        <mxCell id="Q0_0dqxEZTdm9ZpdxWBX-56" value="+ address: Address" style="text;align=left;verticalAlign=top;spacingLeft=4;spacingRight=4;overflow=hidden;rotatable=0;points=[[0,0.5],[1,0.5]];portConstraint=eastwest;rounded=0;shadow=0;html=0;" parent="Q0_0dqxEZTdm9ZpdxWBX-52" vertex="1">
          <mxGeometry y="104" width="160" height="26" as="geometry" />
        </mxCell>
        <mxCell id="Q0_0dqxEZTdm9ZpdxWBX-57" value="+ birthday: Birthday" style="text;align=left;verticalAlign=top;spacingLeft=4;spacingRight=4;overflow=hidden;rotatable=0;points=[[0,0.5],[1,0.5]];portConstraint=eastwest;rounded=0;shadow=0;html=0;" parent="Q0_0dqxEZTdm9ZpdxWBX-52" vertex="1">
          <mxGeometry y="130" width="160" height="26" as="geometry" />
        </mxCell>
        <mxCell id="Q0_0dqxEZTdm9ZpdxWBX-58" value="" style="line;html=1;strokeWidth=1;align=left;verticalAlign=middle;spacingTop=-1;spacingLeft=3;spacingRight=3;rotatable=0;labelPosition=right;points=[];portConstraint=eastwest;" parent="Q0_0dqxEZTdm9ZpdxWBX-52" vertex="1">
          <mxGeometry y="156" width="160" height="8" as="geometry" />
        </mxCell>
        <mxCell id="Q0_0dqxEZTdm9ZpdxWBX-59" value="- __init__()" style="text;align=left;verticalAlign=top;spacingLeft=4;spacingRight=4;overflow=hidden;rotatable=0;points=[[0,0.5],[1,0.5]];portConstraint=eastwest;" parent="Q0_0dqxEZTdm9ZpdxWBX-52" vertex="1">
          <mxGeometry y="164" width="160" height="26" as="geometry" />
        </mxCell>
        <mxCell id="Q0_0dqxEZTdm9ZpdxWBX-60" value="+ add_phone()" style="text;align=left;verticalAlign=top;spacingLeft=4;spacingRight=4;overflow=hidden;rotatable=0;points=[[0,0.5],[1,0.5]];portConstraint=eastwest;" parent="Q0_0dqxEZTdm9ZpdxWBX-52" vertex="1">
          <mxGeometry y="190" width="160" height="26" as="geometry" />
        </mxCell>
        <mxCell id="Q0_0dqxEZTdm9ZpdxWBX-61" value="+ add_email()" style="text;align=left;verticalAlign=top;spacingLeft=4;spacingRight=4;overflow=hidden;rotatable=0;points=[[0,0.5],[1,0.5]];portConstraint=eastwest;" parent="Q0_0dqxEZTdm9ZpdxWBX-52" vertex="1">
          <mxGeometry y="216" width="160" height="26" as="geometry" />
        </mxCell>
        <mxCell id="Q0_0dqxEZTdm9ZpdxWBX-62" value="+ add_address()" style="text;align=left;verticalAlign=top;spacingLeft=4;spacingRight=4;overflow=hidden;rotatable=0;points=[[0,0.5],[1,0.5]];portConstraint=eastwest;" parent="Q0_0dqxEZTdm9ZpdxWBX-52" vertex="1">
          <mxGeometry y="242" width="160" height="26" as="geometry" />
        </mxCell>
        <mxCell id="Q0_0dqxEZTdm9ZpdxWBX-63" value="+ update_birthday()" style="text;align=left;verticalAlign=top;spacingLeft=4;spacingRight=4;overflow=hidden;rotatable=0;points=[[0,0.5],[1,0.5]];portConstraint=eastwest;" parent="Q0_0dqxEZTdm9ZpdxWBX-52" vertex="1">
          <mxGeometry y="268" width="160" height="26" as="geometry" />
        </mxCell>
        <mxCell id="Q0_0dqxEZTdm9ZpdxWBX-64" value="+ remove_phone()" style="text;align=left;verticalAlign=top;spacingLeft=4;spacingRight=4;overflow=hidden;rotatable=0;points=[[0,0.5],[1,0.5]];portConstraint=eastwest;" parent="Q0_0dqxEZTdm9ZpdxWBX-52" vertex="1">
          <mxGeometry y="294" width="160" height="26" as="geometry" />
        </mxCell>
        <mxCell id="Q0_0dqxEZTdm9ZpdxWBX-65" value="+ edit_name()" style="text;align=left;verticalAlign=top;spacingLeft=4;spacingRight=4;overflow=hidden;rotatable=0;points=[[0,0.5],[1,0.5]];portConstraint=eastwest;" parent="Q0_0dqxEZTdm9ZpdxWBX-52" vertex="1">
          <mxGeometry y="320" width="160" height="26" as="geometry" />
        </mxCell>
        <mxCell id="Q0_0dqxEZTdm9ZpdxWBX-66" value="+ edit_phone()" style="text;align=left;verticalAlign=top;spacingLeft=4;spacingRight=4;overflow=hidden;rotatable=0;points=[[0,0.5],[1,0.5]];portConstraint=eastwest;" parent="Q0_0dqxEZTdm9ZpdxWBX-52" vertex="1">
          <mxGeometry y="346" width="160" height="26" as="geometry" />
        </mxCell>
        <mxCell id="Q0_0dqxEZTdm9ZpdxWBX-67" value="+ remove_email()" style="text;align=left;verticalAlign=top;spacingLeft=4;spacingRight=4;overflow=hidden;rotatable=0;points=[[0,0.5],[1,0.5]];portConstraint=eastwest;" parent="Q0_0dqxEZTdm9ZpdxWBX-52" vertex="1">
          <mxGeometry y="372" width="160" height="26" as="geometry" />
        </mxCell>
        <mxCell id="Q0_0dqxEZTdm9ZpdxWBX-68" value="+ edit_email()" style="text;align=left;verticalAlign=top;spacingLeft=4;spacingRight=4;overflow=hidden;rotatable=0;points=[[0,0.5],[1,0.5]];portConstraint=eastwest;" parent="Q0_0dqxEZTdm9ZpdxWBX-52" vertex="1">
          <mxGeometry y="398" width="160" height="26" as="geometry" />
        </mxCell>
        <mxCell id="Q0_0dqxEZTdm9ZpdxWBX-69" value="+ remove_address()" style="text;align=left;verticalAlign=top;spacingLeft=4;spacingRight=4;overflow=hidden;rotatable=0;points=[[0,0.5],[1,0.5]];portConstraint=eastwest;" parent="Q0_0dqxEZTdm9ZpdxWBX-52" vertex="1">
          <mxGeometry y="424" width="160" height="26" as="geometry" />
        </mxCell>
        <mxCell id="Q0_0dqxEZTdm9ZpdxWBX-70" value="+ edit_address()" style="text;align=left;verticalAlign=top;spacingLeft=4;spacingRight=4;overflow=hidden;rotatable=0;points=[[0,0.5],[1,0.5]];portConstraint=eastwest;" parent="Q0_0dqxEZTdm9ZpdxWBX-52" vertex="1">
          <mxGeometry y="450" width="160" height="26" as="geometry" />
        </mxCell>
        <mxCell id="Q0_0dqxEZTdm9ZpdxWBX-71" value="+ find_phone()" style="text;align=left;verticalAlign=top;spacingLeft=4;spacingRight=4;overflow=hidden;rotatable=0;points=[[0,0.5],[1,0.5]];portConstraint=eastwest;" parent="Q0_0dqxEZTdm9ZpdxWBX-52" vertex="1">
          <mxGeometry y="476" width="160" height="26" as="geometry" />
        </mxCell>
        <mxCell id="Q0_0dqxEZTdm9ZpdxWBX-72" value="+ days_to_birthday()" style="text;align=left;verticalAlign=top;spacingLeft=4;spacingRight=4;overflow=hidden;rotatable=0;points=[[0,0.5],[1,0.5]];portConstraint=eastwest;" parent="Q0_0dqxEZTdm9ZpdxWBX-52" vertex="1">
          <mxGeometry y="502" width="160" height="26" as="geometry" />
        </mxCell>
        <mxCell id="Q0_0dqxEZTdm9ZpdxWBX-73" value="+ to_dict()" style="text;align=left;verticalAlign=top;spacingLeft=4;spacingRight=4;overflow=hidden;rotatable=0;points=[[0,0.5],[1,0.5]];portConstraint=eastwest;" parent="Q0_0dqxEZTdm9ZpdxWBX-52" vertex="1">
          <mxGeometry y="528" width="160" height="26" as="geometry" />
        </mxCell>
        <mxCell id="Q0_0dqxEZTdm9ZpdxWBX-74" value="+ from_dict()" style="text;align=left;verticalAlign=top;spacingLeft=4;spacingRight=4;overflow=hidden;rotatable=0;points=[[0,0.5],[1,0.5]];portConstraint=eastwest;" parent="Q0_0dqxEZTdm9ZpdxWBX-52" vertex="1">
          <mxGeometry y="554" width="160" height="26" as="geometry" />
        </mxCell>
        <mxCell id="Q0_0dqxEZTdm9ZpdxWBX-75" value="+ __str__()" style="text;align=left;verticalAlign=top;spacingLeft=4;spacingRight=4;overflow=hidden;rotatable=0;points=[[0,0.5],[1,0.5]];portConstraint=eastwest;" parent="Q0_0dqxEZTdm9ZpdxWBX-52" vertex="1">
          <mxGeometry y="580" width="160" height="26" as="geometry" />
        </mxCell>
        <mxCell id="Q0_0dqxEZTdm9ZpdxWBX-76" style="edgeStyle=orthogonalEdgeStyle;rounded=0;orthogonalLoop=1;jettySize=auto;html=1;entryX=0.5;entryY=1;entryDx=0;entryDy=0;endArrow=block;endFill=1;startArrow=diamondThin;startFill=1;endSize=10;startSize=10;" parent="WIyWlLk6GJQsqaUBKTNV-1" source="Q0_0dqxEZTdm9ZpdxWBX-78" target="Q0_0dqxEZTdm9ZpdxWBX-52" edge="1">
          <mxGeometry relative="1" as="geometry" />
        </mxCell>
        <mxCell id="Q0_0dqxEZTdm9ZpdxWBX-77" style="edgeStyle=orthogonalEdgeStyle;rounded=0;orthogonalLoop=1;jettySize=auto;html=1;entryX=1;entryY=0.5;entryDx=0;entryDy=0;curved=0;endArrow=block;endFill=0;endSize=10;startSize=10;exitX=-0.003;exitY=0.046;exitDx=0;exitDy=0;exitPerimeter=0;" parent="WIyWlLk6GJQsqaUBKTNV-1" source="Q0_0dqxEZTdm9ZpdxWBX-78" target="Q0_0dqxEZTdm9ZpdxWBX-50" edge="1">
          <mxGeometry relative="1" as="geometry">
            <mxPoint x="562.0899999999999" y="745" as="sourcePoint" />
          </mxGeometry>
        </mxCell>
        <mxCell id="Q0_0dqxEZTdm9ZpdxWBX-78" value="AddressBook" style="swimlane;fontStyle=1;align=center;verticalAlign=top;childLayout=stackLayout;horizontal=1;startSize=26;horizontalStack=0;resizeParent=1;resizeLast=0;collapsible=1;marginBottom=0;rounded=0;shadow=0;strokeWidth=1;" parent="WIyWlLk6GJQsqaUBKTNV-1" vertex="1">
          <mxGeometry x="563.0899999999999" y="735" width="160" height="350" as="geometry">
            <mxRectangle x="130" y="380" width="160" height="26" as="alternateBounds" />
          </mxGeometry>
        </mxCell>
        <mxCell id="Q0_0dqxEZTdm9ZpdxWBX-79" value="+ _birth_date: Record" style="text;align=left;verticalAlign=top;spacingLeft=4;spacingRight=4;overflow=hidden;rotatable=0;points=[[0,0.5],[1,0.5]];portConstraint=eastwest;" parent="Q0_0dqxEZTdm9ZpdxWBX-78" vertex="1">
          <mxGeometry y="26" width="160" height="26" as="geometry" />
        </mxCell>
        <mxCell id="Q0_0dqxEZTdm9ZpdxWBX-80" value="+ _contact: Record" style="text;align=left;verticalAlign=top;spacingLeft=4;spacingRight=4;overflow=hidden;rotatable=0;points=[[0,0.5],[1,0.5]];portConstraint=eastwest;rounded=0;shadow=0;html=0;" parent="Q0_0dqxEZTdm9ZpdxWBX-78" vertex="1">
          <mxGeometry y="52" width="160" height="26" as="geometry" />
        </mxCell>
        <mxCell id="Q0_0dqxEZTdm9ZpdxWBX-81" value="+ data: Record" style="text;align=left;verticalAlign=top;spacingLeft=4;spacingRight=4;overflow=hidden;rotatable=0;points=[[0,0.5],[1,0.5]];portConstraint=eastwest;rounded=0;shadow=0;html=0;" parent="Q0_0dqxEZTdm9ZpdxWBX-78" vertex="1">
          <mxGeometry y="78" width="160" height="26" as="geometry" />
        </mxCell>
        <mxCell id="Q0_0dqxEZTdm9ZpdxWBX-82" value="" style="line;html=1;strokeWidth=1;align=left;verticalAlign=middle;spacingTop=-1;spacingLeft=3;spacingRight=3;rotatable=0;labelPosition=right;points=[];portConstraint=eastwest;" parent="Q0_0dqxEZTdm9ZpdxWBX-78" vertex="1">
          <mxGeometry y="104" width="160" height="8" as="geometry" />
        </mxCell>
        <mxCell id="Q0_0dqxEZTdm9ZpdxWBX-83" value="+ add_record()" style="text;align=left;verticalAlign=top;spacingLeft=4;spacingRight=4;overflow=hidden;rotatable=0;points=[[0,0.5],[1,0.5]];portConstraint=eastwest;" parent="Q0_0dqxEZTdm9ZpdxWBX-78" vertex="1">
          <mxGeometry y="112" width="160" height="26" as="geometry" />
        </mxCell>
        <mxCell id="Q0_0dqxEZTdm9ZpdxWBX-84" value="+ clear_all_contacts()" style="text;align=left;verticalAlign=top;spacingLeft=4;spacingRight=4;overflow=hidden;rotatable=0;points=[[0,0.5],[1,0.5]];portConstraint=eastwest;" parent="Q0_0dqxEZTdm9ZpdxWBX-78" vertex="1">
          <mxGeometry y="138" width="160" height="26" as="geometry" />
        </mxCell>
        <mxCell id="Q0_0dqxEZTdm9ZpdxWBX-85" value="+ delete()" style="text;align=left;verticalAlign=top;spacingLeft=4;spacingRight=4;overflow=hidden;rotatable=0;points=[[0,0.5],[1,0.5]];portConstraint=eastwest;" parent="Q0_0dqxEZTdm9ZpdxWBX-78" vertex="1">
          <mxGeometry y="164" width="160" height="26" as="geometry" />
        </mxCell>
        <mxCell id="Q0_0dqxEZTdm9ZpdxWBX-86" value="+ find()" style="text;align=left;verticalAlign=top;spacingLeft=4;spacingRight=4;overflow=hidden;rotatable=0;points=[[0,0.5],[1,0.5]];portConstraint=eastwest;" parent="Q0_0dqxEZTdm9ZpdxWBX-78" vertex="1">
          <mxGeometry y="190" width="160" height="26" as="geometry" />
        </mxCell>
        <mxCell id="Q0_0dqxEZTdm9ZpdxWBX-87" value="+ iterator()" style="text;align=left;verticalAlign=top;spacingLeft=4;spacingRight=4;overflow=hidden;rotatable=0;points=[[0,0.5],[1,0.5]];portConstraint=eastwest;" parent="Q0_0dqxEZTdm9ZpdxWBX-78" vertex="1">
          <mxGeometry y="216" width="160" height="26" as="geometry" />
        </mxCell>
        <mxCell id="Q0_0dqxEZTdm9ZpdxWBX-88" value="+ load_from_disk()" style="text;align=left;verticalAlign=top;spacingLeft=4;spacingRight=4;overflow=hidden;rotatable=0;points=[[0,0.5],[1,0.5]];portConstraint=eastwest;" parent="Q0_0dqxEZTdm9ZpdxWBX-78" vertex="1">
          <mxGeometry y="242" width="160" height="26" as="geometry" />
        </mxCell>
        <mxCell id="Q0_0dqxEZTdm9ZpdxWBX-89" value="+ save_to_disk()" style="text;align=left;verticalAlign=top;spacingLeft=4;spacingRight=4;overflow=hidden;rotatable=0;points=[[0,0.5],[1,0.5]];portConstraint=eastwest;" parent="Q0_0dqxEZTdm9ZpdxWBX-78" vertex="1">
          <mxGeometry y="268" width="160" height="26" as="geometry" />
        </mxCell>
        <mxCell id="Q0_0dqxEZTdm9ZpdxWBX-90" value="+ search_by_birthday()" style="text;align=left;verticalAlign=top;spacingLeft=4;spacingRight=4;overflow=hidden;rotatable=0;points=[[0,0.5],[1,0.5]];portConstraint=eastwest;" parent="Q0_0dqxEZTdm9ZpdxWBX-78" vertex="1">
          <mxGeometry y="294" width="160" height="26" as="geometry" />
        </mxCell>
        <mxCell id="Q0_0dqxEZTdm9ZpdxWBX-91" value="+ search_contacts()" style="text;align=left;verticalAlign=top;spacingLeft=4;spacingRight=4;overflow=hidden;rotatable=0;points=[[0,0.5],[1,0.5]];portConstraint=eastwest;" parent="Q0_0dqxEZTdm9ZpdxWBX-78" vertex="1">
          <mxGeometry y="320" width="160" height="26" as="geometry" />
        </mxCell>
        <mxCell id="Q0_0dqxEZTdm9ZpdxWBX-92" style="edgeStyle=orthogonalEdgeStyle;rounded=0;orthogonalLoop=1;jettySize=auto;html=1;entryX=0;entryY=0.5;entryDx=0;entryDy=0;curved=0;endArrow=block;endFill=0;endSize=10;startSize=10;exitX=1;exitY=0.043;exitDx=0;exitDy=0;exitPerimeter=0;" parent="WIyWlLk6GJQsqaUBKTNV-1" source="Q0_0dqxEZTdm9ZpdxWBX-93" target="Q0_0dqxEZTdm9ZpdxWBX-50" edge="1">
          <mxGeometry relative="1" as="geometry" />
        </mxCell>
        <mxCell id="Q0_0dqxEZTdm9ZpdxWBX-93" value="Notebook" style="swimlane;fontStyle=1;align=center;verticalAlign=top;childLayout=stackLayout;horizontal=1;startSize=26;horizontalStack=0;resizeParent=1;resizeLast=0;collapsible=1;marginBottom=0;rounded=0;shadow=0;strokeWidth=1;" parent="WIyWlLk6GJQsqaUBKTNV-1" vertex="1">
          <mxGeometry x="123.09" y="760" width="160" height="300" as="geometry">
            <mxRectangle x="130" y="380" width="160" height="26" as="alternateBounds" />
          </mxGeometry>
        </mxCell>
        <mxCell id="Q0_0dqxEZTdm9ZpdxWBX-94" value="+ data: Note" style="text;align=left;verticalAlign=top;spacingLeft=4;spacingRight=4;overflow=hidden;rotatable=0;points=[[0,0.5],[1,0.5]];portConstraint=eastwest;rounded=0;shadow=0;html=0;" parent="Q0_0dqxEZTdm9ZpdxWBX-93" vertex="1">
          <mxGeometry y="26" width="160" height="26" as="geometry" />
        </mxCell>
        <mxCell id="Q0_0dqxEZTdm9ZpdxWBX-95" value="" style="line;html=1;strokeWidth=1;align=left;verticalAlign=middle;spacingTop=-1;spacingLeft=3;spacingRight=3;rotatable=0;labelPosition=right;points=[];portConstraint=eastwest;" parent="Q0_0dqxEZTdm9ZpdxWBX-93" vertex="1">
          <mxGeometry y="52" width="160" height="8" as="geometry" />
        </mxCell>
        <mxCell id="Q0_0dqxEZTdm9ZpdxWBX-96" value="+ add_note()" style="text;align=left;verticalAlign=top;spacingLeft=4;spacingRight=4;overflow=hidden;rotatable=0;points=[[0,0.5],[1,0.5]];portConstraint=eastwest;" parent="Q0_0dqxEZTdm9ZpdxWBX-93" vertex="1">
          <mxGeometry y="60" width="160" height="26" as="geometry" />
        </mxCell>
        <mxCell id="Q0_0dqxEZTdm9ZpdxWBX-97" value="+ add_tags()" style="text;align=left;verticalAlign=top;spacingLeft=4;spacingRight=4;overflow=hidden;rotatable=0;points=[[0,0.5],[1,0.5]];portConstraint=eastwest;" parent="Q0_0dqxEZTdm9ZpdxWBX-93" vertex="1">
          <mxGeometry y="86" width="160" height="26" as="geometry" />
        </mxCell>
        <mxCell id="Q0_0dqxEZTdm9ZpdxWBX-98" value="+ delete_note()" style="text;align=left;verticalAlign=top;spacingLeft=4;spacingRight=4;overflow=hidden;rotatable=0;points=[[0,0.5],[1,0.5]];portConstraint=eastwest;" parent="Q0_0dqxEZTdm9ZpdxWBX-93" vertex="1">
          <mxGeometry y="112" width="160" height="26" as="geometry" />
        </mxCell>
        <mxCell id="Q0_0dqxEZTdm9ZpdxWBX-99" value="+ find_notes()" style="text;align=left;verticalAlign=top;spacingLeft=4;spacingRight=4;overflow=hidden;rotatable=0;points=[[0,0.5],[1,0.5]];portConstraint=eastwest;" parent="Q0_0dqxEZTdm9ZpdxWBX-93" vertex="1">
          <mxGeometry y="138" width="160" height="26" as="geometry" />
        </mxCell>
        <mxCell id="Q0_0dqxEZTdm9ZpdxWBX-100" value="+ find_notes_by_tags()" style="text;align=left;verticalAlign=top;spacingLeft=4;spacingRight=4;overflow=hidden;rotatable=0;points=[[0,0.5],[1,0.5]];portConstraint=eastwest;" parent="Q0_0dqxEZTdm9ZpdxWBX-93" vertex="1">
          <mxGeometry y="164" width="160" height="26" as="geometry" />
        </mxCell>
        <mxCell id="Q0_0dqxEZTdm9ZpdxWBX-101" value="+ get_note()" style="text;align=left;verticalAlign=top;spacingLeft=4;spacingRight=4;overflow=hidden;rotatable=0;points=[[0,0.5],[1,0.5]];portConstraint=eastwest;" parent="Q0_0dqxEZTdm9ZpdxWBX-93" vertex="1">
          <mxGeometry y="190" width="160" height="26" as="geometry" />
        </mxCell>
        <mxCell id="Q0_0dqxEZTdm9ZpdxWBX-102" value="+ remove_tags()" style="text;align=left;verticalAlign=top;spacingLeft=4;spacingRight=4;overflow=hidden;rotatable=0;points=[[0,0.5],[1,0.5]];portConstraint=eastwest;" parent="Q0_0dqxEZTdm9ZpdxWBX-93" vertex="1">
          <mxGeometry y="216" width="160" height="26" as="geometry" />
        </mxCell>
        <mxCell id="Q0_0dqxEZTdm9ZpdxWBX-103" value="+ sort_notes_by_tags()" style="text;align=left;verticalAlign=top;spacingLeft=4;spacingRight=4;overflow=hidden;rotatable=0;points=[[0,0.5],[1,0.5]];portConstraint=eastwest;" parent="Q0_0dqxEZTdm9ZpdxWBX-93" vertex="1">
          <mxGeometry y="242" width="160" height="26" as="geometry" />
        </mxCell>
        <mxCell id="Q0_0dqxEZTdm9ZpdxWBX-104" value="- tag_conversion()" style="text;align=left;verticalAlign=top;spacingLeft=4;spacingRight=4;overflow=hidden;rotatable=0;points=[[0,0.5],[1,0.5]];portConstraint=eastwest;" parent="Q0_0dqxEZTdm9ZpdxWBX-93" vertex="1">
          <mxGeometry y="268" width="160" height="26" as="geometry" />
        </mxCell>
        <mxCell id="7zgd1YvoaxOKJfCatQyc-4" style="edgeStyle=orthogonalEdgeStyle;rounded=0;orthogonalLoop=1;jettySize=auto;html=1;startArrow=block;startFill=1;endSize=10;startSize=10;endArrow=diamondThin;endFill=1;entryX=1;entryY=0.5;entryDx=0;entryDy=0;exitX=0;exitY=0.25;exitDx=0;exitDy=0;" edge="1" parent="WIyWlLk6GJQsqaUBKTNV-1" source="Q0_0dqxEZTdm9ZpdxWBX-33" target="Q0_0dqxEZTdm9ZpdxWBX-9">
          <mxGeometry relative="1" as="geometry">
            <mxPoint x="292.09000000000003" y="269" as="targetPoint" />
          </mxGeometry>
        </mxCell>
        <mxCell id="7zgd1YvoaxOKJfCatQyc-14" style="edgeStyle=orthogonalEdgeStyle;rounded=0;orthogonalLoop=1;jettySize=auto;html=1;exitX=0.008;exitY=0.085;exitDx=0;exitDy=0;exitPerimeter=0;endSize=10;startSize=10;endArrow=none;endFill=0;startArrow=block;startFill=0;" edge="1" parent="WIyWlLk6GJQsqaUBKTNV-1" source="Q0_0dqxEZTdm9ZpdxWBX-0" target="Q0_0dqxEZTdm9ZpdxWBX-35">
          <mxGeometry relative="1" as="geometry">
            <Array as="points">
              <mxPoint x="312.09000000000003" y="689" />
              <mxPoint x="312.09000000000003" y="285" />
            </Array>
          </mxGeometry>
        </mxCell>
        <mxCell id="7zgd1YvoaxOKJfCatQyc-22" style="edgeStyle=orthogonalEdgeStyle;rounded=0;orthogonalLoop=1;jettySize=auto;html=1;entryX=-0.002;entryY=0.703;entryDx=0;entryDy=0;entryPerimeter=0;exitX=0;exitY=0.25;exitDx=0;exitDy=0;startArrow=block;startFill=1;endArrow=diamondThin;endFill=1;endSize=10;startSize=10;" edge="1" parent="WIyWlLk6GJQsqaUBKTNV-1" source="Q0_0dqxEZTdm9ZpdxWBX-42" target="Q0_0dqxEZTdm9ZpdxWBX-10">
          <mxGeometry relative="1" as="geometry" />
        </mxCell>
      </root>
    </mxGraphModel>
  </diagram>
</mxfile>
